# Blender v2.79 (sub 0) OBJ File: 'lightbulb.blend'
# www.blender.org
mtllib socket.mtl
o Cylinder_Cylinder.001
v 0.000000 -34.713421 -0.554331
v 0.000000 -33.604755 -0.554331
v 0.108145 -34.713421 -0.543680
v 0.108145 -33.604755 -0.543680
v 0.212133 -34.713421 -0.512135
v 0.212133 -33.604755 -0.512135
v 0.307970 -34.713421 -0.460910
v 0.307970 -33.604755 -0.460910
v 0.391971 -34.713421 -0.391971
v 0.391971 -33.604755 -0.391971
v 0.460910 -34.713421 -0.307970
v 0.460910 -33.604755 -0.307970
v 0.512135 -34.713421 -0.212133
v 0.512135 -33.604755 -0.212133
v 0.543680 -34.713421 -0.108145
v 0.543680 -33.604755 -0.108145
v 0.554331 -34.713421 -0.000000
v 0.554331 -33.604755 -0.000000
v 0.543680 -34.713421 0.108145
v 0.543680 -33.604755 0.108145
v 0.512135 -34.713421 0.212133
v 0.512135 -33.604755 0.212133
v 0.460910 -34.713421 0.307970
v 0.460910 -33.604755 0.307970
v 0.391971 -34.713421 0.391971
v 0.391971 -33.604755 0.391971
v 0.307970 -34.713421 0.460910
v 0.307970 -33.604755 0.460910
v 0.212133 -34.713421 0.512135
v 0.212133 -33.604755 0.512135
v 0.108145 -34.713421 0.543680
v 0.108145 -33.604755 0.543680
v -0.000000 -34.713421 0.554331
v -0.000000 -33.604755 0.554331
v -0.108145 -34.713421 0.543680
v -0.108145 -33.604755 0.543680
v -0.212134 -34.713421 0.512135
v -0.212134 -33.604755 0.512135
v -0.307970 -34.713421 0.460909
v -0.307970 -33.604755 0.460909
v -0.391972 -34.713421 0.391971
v -0.391972 -33.604755 0.391971
v -0.460910 -34.713421 0.307970
v -0.460910 -33.604755 0.307970
v -0.512135 -34.713421 0.212133
v -0.512135 -33.604755 0.212133
v -0.543680 -34.713421 0.108144
v -0.543680 -33.604755 0.108144
v -0.554331 -34.713421 -0.000001
v -0.554331 -33.604755 -0.000001
v -0.543680 -34.713421 -0.108145
v -0.543680 -33.604755 -0.108145
v -0.512135 -34.713421 -0.212134
v -0.512135 -33.604755 -0.212134
v -0.460909 -34.713421 -0.307970
v -0.460909 -33.604755 -0.307970
v -0.391971 -34.713421 -0.391972
v -0.391971 -33.604755 -0.391972
v -0.307969 -34.713421 -0.460910
v -0.307969 -33.604755 -0.460910
v -0.212133 -34.713421 -0.512136
v -0.212133 -33.604755 -0.512136
v -0.108144 -34.713421 -0.543680
v -0.108144 -33.604755 -0.543680
v 0.000000 -33.433723 -0.499055
v 0.097361 -33.433723 -0.489466
v 0.190980 -33.433723 -0.461067
v 0.277260 -33.433723 -0.414949
v 0.352885 -33.433723 -0.352885
v 0.414949 -33.433723 -0.277260
v 0.461067 -33.433723 -0.190980
v 0.489466 -33.433723 -0.097361
v 0.499055 -33.433723 -0.000000
v 0.489466 -33.433723 0.097361
v 0.461067 -33.433723 0.190980
v 0.414949 -33.433723 0.277260
v 0.352885 -33.433723 0.352885
v 0.277260 -33.433723 0.414949
v 0.190980 -33.433723 0.461067
v 0.097361 -33.433723 0.489466
v -0.000000 -33.433723 0.499055
v -0.097361 -33.433723 0.489466
v -0.190980 -33.433723 0.461067
v -0.277260 -33.433723 0.414949
v -0.352885 -33.433723 0.352885
v -0.414949 -33.433723 0.277260
v -0.461067 -33.433723 0.190980
v -0.489466 -33.433723 0.097360
v -0.499055 -33.433723 -0.000000
v -0.489466 -33.433723 -0.097361
v -0.461067 -33.433723 -0.190981
v -0.414949 -33.433723 -0.277261
v -0.352885 -33.433723 -0.352886
v -0.277260 -33.433723 -0.414950
v -0.190979 -33.433723 -0.461067
v -0.097360 -33.433723 -0.489466
v 0.000000 -33.318905 -0.400326
v 0.078100 -33.318905 -0.392634
v 0.153198 -33.318905 -0.369853
v 0.222409 -33.318905 -0.332859
v 0.283073 -33.318905 -0.283073
v 0.332859 -33.318905 -0.222409
v 0.369853 -33.318905 -0.153198
v 0.392634 -33.318905 -0.078100
v 0.400326 -33.318905 -0.000000
v 0.392634 -33.318905 0.078100
v 0.369853 -33.318905 0.153198
v 0.332859 -33.318905 0.222409
v 0.283073 -33.318905 0.283073
v 0.222409 -33.318905 0.332859
v 0.153198 -33.318905 0.369853
v 0.078100 -33.318905 0.392634
v -0.000000 -33.318905 0.400326
v -0.078100 -33.318905 0.392634
v -0.153198 -33.318905 0.369853
v -0.222409 -33.318905 0.332859
v -0.283073 -33.318905 0.283073
v -0.332859 -33.318905 0.222409
v -0.369853 -33.318905 0.153198
v -0.392634 -33.318905 0.078099
v -0.400326 -33.318905 -0.000000
v -0.392634 -33.318905 -0.078100
v -0.369853 -33.318905 -0.153199
v -0.332859 -33.318905 -0.222410
v -0.283073 -33.318905 -0.283074
v -0.222409 -33.318905 -0.332859
v -0.153198 -33.318905 -0.369853
v -0.078099 -33.318905 -0.392634
v 0.000000 -33.318905 -0.000000
v 0.000000 -33.511784 -0.100000
v 0.000000 0.063286 -0.100000
v 0.058779 -33.511784 -0.080902
v 0.058779 0.063286 -0.080902
v 0.095106 -33.511784 -0.030902
v 0.095106 0.063286 -0.030902
v 0.095106 -33.511784 0.030902
v 0.095106 0.063286 0.030902
v 0.058779 -33.511784 0.080902
v 0.058779 0.063286 0.080902
v -0.000000 -33.511784 0.100000
v -0.000000 0.063286 0.100000
v -0.058779 -33.511784 0.080902
v -0.058779 0.063286 0.080902
v -0.095106 -33.511784 0.030902
v -0.095106 0.063286 0.030902
v -0.095106 -33.511784 -0.030902
v -0.095106 0.063286 -0.030902
v -0.058778 -33.511784 -0.080902
v -0.058778 0.063286 -0.080902
vn 0.0000 0.1542 -0.9880
vn 0.1420 -0.6857 -0.7139
vn 0.0000 -0.6857 -0.7279
vn 0.1928 0.1542 -0.9691
vn 0.2785 -0.6856 -0.6725
vn 0.3781 0.1542 -0.9128
vn 0.4044 -0.6857 -0.6052
vn 0.5489 0.1542 -0.8215
vn 0.5147 -0.6857 -0.5147
vn 0.6986 0.1542 -0.6986
vn 0.6052 -0.6857 -0.4044
vn 0.8215 0.1542 -0.5489
vn 0.6725 -0.6857 -0.2785
vn 0.9128 0.1542 -0.3781
vn 0.7139 -0.6857 -0.1420
vn 0.9691 0.1542 -0.1928
vn 0.7279 -0.6857 0.0000
vn 0.9880 0.1542 0.0000
vn 0.7139 -0.6857 0.1420
vn 0.9691 0.1542 0.1927
vn 0.6725 -0.6857 0.2785
vn 0.9128 0.1542 0.3781
vn 0.6052 -0.6857 0.4044
vn 0.8215 0.1542 0.5489
vn 0.5146 -0.6856 0.5148
vn 0.6986 0.1542 0.6986
vn 0.4044 -0.6857 0.6052
vn 0.5489 0.1542 0.8215
vn 0.2785 -0.6857 0.6724
vn 0.3781 0.1542 0.9128
vn 0.1420 -0.6857 0.7139
vn 0.1928 0.1542 0.9691
vn 0.0000 -0.6857 0.7279
vn 0.0000 0.1542 0.9880
vn -0.1420 -0.6857 0.7139
vn -0.1928 0.1542 0.9691
vn -0.2786 -0.6858 0.6723
vn -0.3781 0.1542 0.9128
vn -0.4044 -0.6857 0.6052
vn -0.5489 0.1542 0.8215
vn -0.5147 -0.6857 0.5147
vn -0.6986 0.1542 0.6986
vn -0.6052 -0.6857 0.4044
vn -0.8215 0.1542 0.5489
vn -0.6725 -0.6857 0.2785
vn -0.9128 0.1542 0.3781
vn -0.7139 -0.6857 0.1420
vn -0.9691 0.1542 0.1927
vn -0.7279 -0.6857 0.0000
vn -0.9880 0.1542 0.0000
vn -0.7139 -0.6857 -0.1420
vn -0.9691 0.1542 -0.1928
vn -0.6725 -0.6857 -0.2785
vn -0.9128 0.1542 -0.3781
vn -0.6052 -0.6857 -0.4044
vn -0.8215 0.1542 -0.5489
vn -0.5147 -0.6857 -0.5147
vn -0.6986 0.1542 -0.6986
vn -0.4043 -0.6856 -0.6053
vn -0.5489 0.1542 -0.8215
vn -0.2785 -0.6856 -0.6725
vn 0.8749 0.4842 0.0000
vn 0.8581 0.4842 0.1707
vn -0.3781 0.1542 -0.9128
vn -0.1420 -0.6857 -0.7139
vn -0.1928 0.1542 -0.9691
vn -0.3348 0.4842 0.8083
vn -0.7275 0.4842 -0.4861
vn 0.7275 0.4842 -0.4861
vn 0.4861 0.4842 0.7275
vn 0.3348 0.4842 0.8083
vn -0.8083 0.4842 0.3348
vn -0.8581 0.4842 0.1707
vn 0.1707 0.4842 -0.8581
vn -0.1707 0.4842 -0.8581
vn 0.0000 0.4842 -0.8749
vn 0.8083 0.4842 0.3348
vn -0.4861 0.4842 0.7275
vn -0.6187 0.4842 -0.6187
vn 0.8083 0.4842 -0.3348
vn 0.1707 0.4842 0.8581
vn -0.8749 0.4842 0.0000
vn 0.3348 0.4842 -0.8083
vn 0.7275 0.4842 0.4861
vn -0.6187 0.4842 0.6187
vn -0.4861 0.4842 -0.7275
vn 0.8581 0.4842 -0.1707
vn 0.0000 0.4842 0.8749
vn -0.8581 0.4842 -0.1707
vn 0.4861 0.4842 -0.7275
vn 0.6187 0.4842 0.6187
vn -0.7275 0.4842 0.4861
vn -0.3348 0.4842 -0.8083
vn -0.1707 0.4842 0.8581
vn -0.8083 0.4842 -0.3348
vn 0.6187 0.4842 -0.6187
vn -0.4298 0.8989 -0.0855
vn 0.3099 0.8989 0.3099
vn -0.4048 0.8989 -0.1677
vn 0.2434 0.8989 0.3643
vn -0.3643 0.8989 -0.2434
vn 0.1677 0.8989 0.4048
vn 0.0855 0.8989 -0.4298
vn -0.3099 0.8989 -0.3099
vn 0.0855 0.8989 0.4298
vn 0.1677 0.8989 -0.4048
vn -0.2434 0.8989 -0.3643
vn 0.0000 0.8989 0.4382
vn 0.2434 0.8989 -0.3643
vn -0.1677 0.8989 -0.4048
vn -0.0855 0.8989 0.4298
vn 0.3099 0.8989 -0.3099
vn -0.0855 0.8989 -0.4298
vn -0.1677 0.8989 0.4048
vn 0.3643 0.8989 -0.2434
vn 0.0000 0.8989 -0.4382
vn -0.2434 0.8989 0.3643
vn 0.4048 0.8989 -0.1677
vn -0.3099 0.8989 0.3099
vn 0.4298 0.8989 -0.0855
vn -0.3644 0.8989 0.2434
vn 0.4382 0.8989 0.0000
vn -0.4048 0.8989 0.1677
vn 0.4298 0.8989 0.0855
vn -0.4298 0.8989 0.0855
vn 0.4048 0.8989 0.1677
vn -0.4382 0.8989 0.0000
vn 0.3643 0.8989 0.2434
vn 0.0000 1.0000 0.0000
vn 0.0000 0.6437 -0.7653
vn 0.4498 -0.6437 -0.6191
vn 0.0000 -0.6437 -0.7653
vn 0.4498 0.6437 -0.6191
vn 0.7278 -0.6437 -0.2365
vn 0.7278 0.6437 -0.2365
vn 0.7278 -0.6437 0.2365
vn 0.7278 0.6437 0.2365
vn 0.4498 -0.6437 0.6191
vn 0.4498 0.6437 0.6191
vn 0.0000 -0.6437 0.7653
vn 0.0000 0.6437 0.7653
vn -0.4498 -0.6437 0.6191
vn -0.4498 0.6437 0.6191
vn -0.7278 -0.6437 0.2365
vn -0.7278 0.6437 0.2365
vn -0.7278 -0.6437 -0.2365
vn -0.7278 0.6437 -0.2365
vn -0.4498 -0.6437 -0.6191
vn -0.4498 0.6437 -0.6191
usemtl None
s 1
f 2//1 3//2 1//3
f 4//4 5//5 3//2
f 6//6 7//7 5//5
f 8//8 9//9 7//7
f 10//10 11//11 9//9
f 12//12 13//13 11//11
f 14//14 15//15 13//13
f 16//16 17//17 15//15
f 18//18 19//19 17//17
f 20//20 21//21 19//19
f 22//22 23//23 21//21
f 24//24 25//25 23//23
f 26//26 27//27 25//25
f 28//28 29//29 27//27
f 30//30 31//31 29//29
f 32//32 33//33 31//31
f 34//34 35//35 33//33
f 36//36 37//37 35//35
f 38//38 39//39 37//37
f 40//40 41//41 39//39
f 42//42 43//43 41//41
f 44//44 45//45 43//43
f 46//46 47//47 45//45
f 48//48 49//49 47//47
f 50//50 51//51 49//49
f 52//52 53//53 51//51
f 54//54 55//55 53//53
f 56//56 57//57 55//55
f 58//58 59//59 57//57
f 60//60 61//61 59//59
f 20//20 73//62 74//63
f 62//64 63//65 61//61
f 64//66 1//3 63//65
f 31//31 47//47 63//65
f 36//36 83//67 38//38
f 54//54 92//68 56//56
f 10//10 70//69 12//12
f 30//30 78//70 79//71
f 48//48 87//72 88//73
f 2//1 66//74 4//4
f 2//1 96//75 65//76
f 22//22 74//63 75//77
f 40//40 83//67 84//78
f 58//58 92//68 93//79
f 14//14 70//69 71//80
f 32//32 79//71 80//81
f 48//48 89//82 50//50
f 4//4 67//83 6//6
f 22//22 76//84 24//24
f 42//42 84//78 85//85
f 60//60 93//79 94//86
f 16//16 71//80 72//87
f 34//34 80//81 81//88
f 52//52 89//82 90//89
f 6//6 68//90 8//8
f 26//26 76//84 77//91
f 42//42 86//92 44//44
f 62//64 94//86 95//93
f 16//16 73//62 18//18
f 34//34 82//94 36//36
f 52//52 91//95 54//54
f 8//8 69//96 10//10
f 28//28 77//91 78//70
f 44//44 87//72 46//46
f 62//64 96//75 64//66
f 89//82 122//97 90//89
f 76//84 109//98 77//91
f 90//89 123//99 91//95
f 78//70 109//98 110//100
f 92//68 123//99 124//101
f 79//71 110//100 111//102
f 65//76 98//103 66//74
f 92//68 125//104 93//79
f 80//81 111//102 112//105
f 66//74 99//106 67//83
f 93//79 126//107 94//86
f 81//88 112//105 113//108
f 67//83 100//109 68//90
f 95//93 126//107 127//110
f 81//88 114//111 82//94
f 68//90 101//112 69//96
f 96//75 127//110 128//113
f 82//94 115//114 83//67
f 70//69 101//112 102//115
f 65//76 128//113 97//116
f 83//67 116//117 84//78
f 70//69 103//118 71//80
f 84//78 117//119 85//85
f 72//87 103//118 104//120
f 86//92 117//119 118//121
f 73//62 104//120 105//122
f 86//92 119//123 87//72
f 73//62 106//124 74//63
f 88//73 119//123 120//125
f 74//63 107//126 75//77
f 89//82 120//125 121//127
f 76//84 107//126 108//128
f 98//103 97//116 129//129
f 125//104 124//101 129//129
f 112//105 111//102 129//129
f 99//106 98//103 129//129
f 126//107 125//104 129//129
f 113//108 112//105 129//129
f 100//109 99//106 129//129
f 127//110 126//107 129//129
f 114//111 113//108 129//129
f 101//112 100//109 129//129
f 128//113 127//110 129//129
f 115//114 114//111 129//129
f 102//115 101//112 129//129
f 97//116 128//113 129//129
f 116//117 115//114 129//129
f 103//118 102//115 129//129
f 117//119 116//117 129//129
f 104//120 103//118 129//129
f 118//121 117//119 129//129
f 105//122 104//120 129//129
f 119//123 118//121 129//129
f 106//124 105//122 129//129
f 120//125 119//123 129//129
f 107//126 106//124 129//129
f 121//127 120//125 129//129
f 108//128 107//126 129//129
f 122//97 121//127 129//129
f 109//98 108//128 129//129
f 123//99 122//97 129//129
f 110//100 109//98 129//129
f 124//101 123//99 129//129
f 111//102 110//100 129//129
f 131//130 132//131 130//132
f 133//133 134//134 132//131
f 135//135 136//136 134//134
f 137//137 138//138 136//136
f 139//139 140//140 138//138
f 141//141 142//142 140//140
f 143//143 144//144 142//142
f 145//145 146//146 144//144
f 147//147 139//139 131//130
f 147//147 148//148 146//146
f 149//149 130//132 148//148
f 136//136 144//144 148//148
f 2//1 4//4 3//2
f 4//4 6//6 5//5
f 6//6 8//8 7//7
f 8//8 10//10 9//9
f 10//10 12//12 11//11
f 12//12 14//14 13//13
f 14//14 16//16 15//15
f 16//16 18//18 17//17
f 18//18 20//20 19//19
f 20//20 22//22 21//21
f 22//22 24//24 23//23
f 24//24 26//26 25//25
f 26//26 28//28 27//27
f 28//28 30//30 29//29
f 30//30 32//32 31//31
f 32//32 34//34 33//33
f 34//34 36//36 35//35
f 36//36 38//38 37//37
f 38//38 40//40 39//39
f 40//40 42//42 41//41
f 42//42 44//44 43//43
f 44//44 46//46 45//45
f 46//46 48//48 47//47
f 48//48 50//50 49//49
f 50//50 52//52 51//51
f 52//52 54//54 53//53
f 54//54 56//56 55//55
f 56//56 58//58 57//57
f 58//58 60//60 59//59
f 60//60 62//64 61//61
f 20//20 18//18 73//62
f 62//64 64//66 63//65
f 64//66 2//1 1//3
f 63//65 1//3 3//2
f 3//2 5//5 7//7
f 7//7 9//9 15//15
f 11//11 13//13 15//15
f 15//15 17//17 23//23
f 19//19 21//21 23//23
f 23//23 25//25 27//27
f 27//27 29//29 23//23
f 31//31 33//33 35//35
f 35//35 37//37 39//39
f 39//39 41//41 43//43
f 43//43 45//45 47//47
f 47//47 49//49 51//51
f 51//51 53//53 47//47
f 55//55 57//57 63//65
f 59//59 61//61 63//65
f 63//65 3//2 15//15
f 9//9 11//11 15//15
f 17//17 19//19 23//23
f 23//23 29//29 31//31
f 31//31 35//35 39//39
f 39//39 43//43 31//31
f 47//47 53//53 55//55
f 57//57 59//59 63//65
f 3//2 7//7 15//15
f 15//15 23//23 31//31
f 31//31 43//43 47//47
f 47//47 55//55 63//65
f 63//65 15//15 31//31
f 36//36 82//94 83//67
f 54//54 91//95 92//68
f 10//10 69//96 70//69
f 30//30 28//28 78//70
f 48//48 46//46 87//72
f 2//1 65//76 66//74
f 2//1 64//66 96//75
f 22//22 20//20 74//63
f 40//40 38//38 83//67
f 58//58 56//56 92//68
f 14//14 12//12 70//69
f 32//32 30//30 79//71
f 48//48 88//73 89//82
f 4//4 66//74 67//83
f 22//22 75//77 76//84
f 42//42 40//40 84//78
f 60//60 58//58 93//79
f 16//16 14//14 71//80
f 34//34 32//32 80//81
f 52//52 50//50 89//82
f 6//6 67//83 68//90
f 26//26 24//24 76//84
f 42//42 85//85 86//92
f 62//64 60//60 94//86
f 16//16 72//87 73//62
f 34//34 81//88 82//94
f 52//52 90//89 91//95
f 8//8 68//90 69//96
f 28//28 26//26 77//91
f 44//44 86//92 87//72
f 62//64 95//93 96//75
f 89//82 121//127 122//97
f 76//84 108//128 109//98
f 90//89 122//97 123//99
f 78//70 77//91 109//98
f 92//68 91//95 123//99
f 79//71 78//70 110//100
f 65//76 97//116 98//103
f 92//68 124//101 125//104
f 80//81 79//71 111//102
f 66//74 98//103 99//106
f 93//79 125//104 126//107
f 81//88 80//81 112//105
f 67//83 99//106 100//109
f 95//93 94//86 126//107
f 81//88 113//108 114//111
f 68//90 100//109 101//112
f 96//75 95//93 127//110
f 82//94 114//111 115//114
f 70//69 69//96 101//112
f 65//76 96//75 128//113
f 83//67 115//114 116//117
f 70//69 102//115 103//118
f 84//78 116//117 117//119
f 72//87 71//80 103//118
f 86//92 85//85 117//119
f 73//62 72//87 104//120
f 86//92 118//121 119//123
f 73//62 105//122 106//124
f 88//73 87//72 119//123
f 74//63 106//124 107//126
f 89//82 88//73 120//125
f 76//84 75//77 107//126
f 131//130 133//133 132//131
f 133//133 135//135 134//134
f 135//135 137//137 136//136
f 137//137 139//139 138//138
f 139//139 141//141 140//140
f 141//141 143//143 142//142
f 143//143 145//145 144//144
f 145//145 147//147 146//146
f 135//135 133//133 131//130
f 131//130 149//149 147//147
f 147//147 145//145 143//143
f 143//143 141//141 139//139
f 139//139 137//137 135//135
f 135//135 131//130 139//139
f 147//147 143//143 139//139
f 147//147 149//149 148//148
f 149//149 131//130 130//132
f 148//148 130//132 132//131
f 132//131 134//134 136//136
f 136//136 138//138 140//140
f 140//140 142//142 144//144
f 144//144 146//146 148//148
f 148//148 132//131 136//136
f 136//136 140//140 144//144
